<svg width="37" height="37" viewBox="0 0 22 22" fill="none" xmlns="http://www.w3.org/2000/svg">
<path d="M0.85 21V21.15H1H2.5625H2.7125V21C2.7125 16.4304 6.43038 12.7125 11 12.7125C15.5696 12.7125 19.2875 16.4304 19.2875 21V21.15H19.4375H21H21.15V21C21.15 18.2891 20.094 15.7398 18.1772 13.8228L18.0711 13.9289L18.1772 13.8228C17.1412 12.7869 15.9201 12.0028 14.5885 11.5005C16.0108 10.4164 16.9312 8.70458 16.9312 6.78125C16.9312 3.51063 14.2706 0.85 11 0.85C7.72938 0.85 5.06875 3.51063 5.06875 6.78125C5.06875 8.70459 5.98917 10.4164 7.41157 11.5005C6.07995 12.0028 4.85885 12.7869 3.82288 13.8228L3.92895 13.9289L3.82288 13.8228C1.906 15.7398 0.85 18.2891 0.85 21ZM11 10.85C8.75663 10.85 6.93125 9.02466 6.93125 6.78125C6.93125 4.53784 8.75663 2.7125 11 2.7125C13.2434 2.7125 15.0688 4.53784 15.0688 6.78125C15.0688 9.02466 13.2434 10.85 11 10.85Z" fill="#333333" stroke="#333333" stroke-width="0.3"/>
</svg>
