<svg width="36" height="36" viewBox="0 0 26 20" fill="none" xmlns="http://www.w3.org/2000/svg">
<path fill-rule="evenodd" clip-rule="evenodd" d="M18.0084 4.93272L14.9561 1.82156C14.5354 1.39278 14.5497 0.711478 14.9878 0.299852C15.426 -0.111774 16.1222 -0.0978797 16.5429 0.330912L20.9424 4.8152C20.979 4.85258 21.0124 4.89186 21.0425 4.93272H23.7999C23.9211 4.93272 24.0421 4.94252 24.1616 4.96201C25.36 5.15744 26.1695 6.26645 25.9697 7.43905L24.2898 17.3021C24.0246 18.8589 22.6481 20 21.0352 20H4.96455C3.35158 20 1.97503 18.8589 1.70986 17.3021L0.0299294 7.43905C0.0100109 7.32211 0 7.20374 0 7.08519C0 5.89641 0.984844 4.93272 2.19972 4.93272H4.95723C4.9873 4.89186 5.02066 4.85258 5.05733 4.8152L9.45677 0.330912C9.87743 -0.0978797 10.5737 -0.111774 11.0118 0.299852C11.45 0.711478 11.4643 1.39278 11.0436 1.82156L7.99132 4.93272H18.0084ZM2.19972 7.08519L3.87964 16.9482C3.96804 17.4671 4.42689 17.8475 4.96455 17.8475H21.0352C21.5728 17.8475 22.0317 17.4671 22.12 16.9482L23.7999 7.08519H2.19972ZM12.9998 9.23769C13.6073 9.23769 14.0997 9.71952 14.0997 10.3139V14.6188C14.0997 15.2131 13.6073 15.6951 12.9998 15.6951C12.3924 15.6951 11.9 15.2131 11.9 14.6188V10.3139C11.9 9.71952 12.3924 9.23769 12.9998 9.23769ZM7.50054 9.23769C8.10798 9.23769 8.6004 9.71952 8.6004 10.3139V14.6188C8.6004 15.2131 8.10798 15.6951 7.50054 15.6951C6.89311 15.6951 6.40068 15.2131 6.40068 14.6188V10.3139C6.40068 9.71952 6.89311 9.23769 7.50054 9.23769ZM18.4991 9.23769C19.1066 9.23769 19.599 9.71952 19.599 10.3139V14.6188C19.599 15.2131 19.1066 15.6951 18.4991 15.6951C17.8917 15.6951 17.3993 15.2131 17.3993 14.6188V10.3139C17.3993 9.71952 17.8917 9.23769 18.4991 9.23769Z" fill="#333333"/>
</svg>
