<svg width="19" height="15" viewBox="0 0 19 15" fill="none" xmlns="http://www.w3.org/2000/svg">
<path d="M13.7142 1.00093C13.7142 0.448152 13.3049 0 12.7999 0H0.914196C0.409266 0 -9.15527e-05 0.448152 -9.15527e-05 1.00093C-9.15527e-05 1.55371 0.409266 2.00187 0.914196 2.00187H12.7999C13.3049 2.00187 13.7142 1.55367 13.7142 1.00093ZM0.914196 6.0056H17.3714C17.8763 6.0056 18.2856 6.45379 18.2856 7.00653C18.2856 7.55931 17.8763 8.00746 17.3714 8.00746H0.914196C0.409266 8.00746 -9.15527e-05 7.55931 -9.15527e-05 7.00653C-9.15527e-05 6.45379 0.409266 6.0056 0.914196 6.0056ZM0.914196 12.0112H9.14278C9.64767 12.0112 10.0571 12.4593 10.0571 13.0121C10.0571 13.5649 9.64767 14.0131 9.14278 14.0131H0.914196C0.409266 14.0131 -9.15527e-05 13.5649 -9.15527e-05 13.0121C-9.15527e-05 12.4593 0.409266 12.0112 0.914196 12.0112Z" fill="black"/>
</svg>
