<svg width="32" height="32" viewBox="0 0 22 20" fill="none" xmlns="http://www.w3.org/2000/svg">
<path fill-rule="evenodd" clip-rule="evenodd" d="M6.6 2.22222C4.16995 2.22222 2.2 4.21207 2.2 6.66667C2.2 6.70067 2.20038 6.73457 2.20112 6.76835C2.20145 6.78301 2.20148 6.79767 2.20123 6.81234C2.20042 6.86023 2.2 6.90902 2.2 6.9587C2.2 10.5914 4.15083 13.2893 6.34071 15.1283C7.43243 16.0451 8.55869 16.725 9.47008 17.1726C9.9256 17.3964 10.3173 17.5571 10.6137 17.6591C10.8285 17.7331 10.95 17.761 10.9957 17.7714C10.9971 17.7718 10.9985 17.7721 10.9998 17.7724C11.0012 17.7721 11.0026 17.7717 11.0041 17.7714C11.0499 17.7609 11.1711 17.7329 11.3855 17.6589C11.6819 17.5566 12.0736 17.3956 12.5292 17.1714C13.4407 16.7229 14.5671 16.0419 15.659 15.1244C17.8495 13.2836 19.8 10.5856 19.8 6.9587C19.8 6.90905 19.7996 6.86032 19.7988 6.81249C19.7985 6.7978 19.7986 6.78311 19.7989 6.76843C19.7996 6.73463 19.8 6.7007 19.8 6.66667C19.8 4.21207 17.8301 2.22222 15.4 2.22222C13.9614 2.22222 12.6841 2.91844 11.8794 4.00021C11.6717 4.27956 11.3459 4.44391 11 4.44391C10.6541 4.44391 10.3283 4.27956 10.1206 4.00021C9.31594 2.91844 8.03862 2.22222 6.6 2.22222ZM0 6.66667C0 2.98477 2.95492 0 6.6 0C8.29078 0 9.83309 0.642919 11 1.69768C12.1669 0.642919 13.7092 0 15.4 0C19.0451 0 22 2.98477 22 6.66667C22 6.70975 21.9996 6.75276 21.9988 6.79568C21.9996 6.84954 22 6.90388 22 6.9587C22 11.4778 19.5505 14.7448 17.066 16.8327C15.8204 17.8794 14.5406 18.6536 13.4927 19.1692C12.9685 19.4271 12.4923 19.6253 12.0969 19.7618C11.749 19.8819 11.3377 20 11 20C10.6629 20 10.2519 19.8824 9.90387 19.7625C9.50849 19.6264 9.03222 19.4286 8.50804 19.1711C7.46006 18.6564 6.18007 17.8833 4.93429 16.8371C2.44917 14.7502 0 11.4831 0 6.9587C0 6.90385 0.000404668 6.84949 0.0012142 6.79562C0.000405782 6.75272 0 6.70974 0 6.66667Z" fill="#333333"/>
</svg>
