<svg width="20" height="21" viewBox="0 0 20 21" fill="none" xmlns="http://www.w3.org/2000/svg">
<path fill-rule="evenodd" clip-rule="evenodd" d="M2.37859 2.37859C5.55003 -0.792864 10.692 -0.792864 13.8634 2.37859C16.9018 5.417 17.0293 10.264 14.2458 13.4542L19.205 18.4133C19.5956 18.8038 19.5956 19.437 19.205 19.8275C18.8145 20.218 18.1813 20.218 17.7908 19.8275L12.755 14.7918C9.5887 16.9968 5.2025 16.6874 2.37859 13.8635C-0.792862 10.692 -0.792862 5.55005 2.37859 2.37859ZM12.4492 3.79281C10.0588 1.4024 6.1832 1.4024 3.7928 3.79281C1.4024 6.18322 1.4024 10.0588 3.7928 12.4492C6.1832 14.8396 10.0588 14.8396 12.4492 12.4492C14.8396 10.0588 14.8396 6.18322 12.4492 3.79281Z" fill="#333333"/>
</svg>
