<svg width="40" height="40" viewBox="0 0 40 40" fill="none" xmlns="http://www.w3.org/2000/svg">
<g clip-path="url(#clip0_1477_8944)">
<path fill-rule="evenodd" clip-rule="evenodd" d="M19.9999 0C8.95423 0 -0.000106812 8.95434 -0.000106812 20.0001C-0.000106812 31.0458 8.95423 40.0001 19.9999 40.0001C31.0457 40.0001 40 31.0458 40 20.0001C40 8.95434 31.0457 0 19.9999 0ZM22.5089 12.0072C22.7995 11.7813 23.2197 11.8018 23.4868 12.0687L23.5483 12.1386C23.7742 12.4291 23.7538 12.8493 23.4868 13.1164L16.6037 20.0001L23.4868 26.8837L23.5483 26.9535C23.7742 27.2441 23.7538 27.6643 23.4868 27.9313C23.1974 28.2206 22.7285 28.2206 22.4392 27.9313L15.0318 20.5238L14.9702 20.454C14.7443 20.1635 14.7648 19.7433 15.0318 19.4762L22.4392 12.0687L22.5089 12.0072Z" fill="#00963D"/>
<path d="M22.5089 12.0072C22.7995 11.7813 23.2197 11.8018 23.4868 12.0687L23.5483 12.1386C23.7742 12.4291 23.7538 12.8493 23.4868 13.1164L16.6037 20.0001L23.4868 26.8837L23.5483 26.9535C23.7742 27.2441 23.7538 27.6643 23.4868 27.9313C23.1974 28.2206 22.7285 28.2206 22.4392 27.9313L15.0318 20.5238L14.9702 20.454C14.7443 20.1635 14.7648 19.7433 15.0318 19.4762L22.4392 12.0687L22.5089 12.0072Z" fill="white"/>
</g>
<defs>
<clipPath id="clip0_1477_8944">
<rect width="40" height="40" fill="white" transform="matrix(-1 0 0 1 40 0)"/>
</clipPath>
</defs>
</svg>
