<svg width="40" height="40" viewBox="0 0 40 40" fill="none" xmlns="http://www.w3.org/2000/svg">
<g clip-path="url(#clip0_1429_8951)">
<path fill-rule="evenodd" clip-rule="evenodd" d="M20.0001 0C31.0458 0 40.0001 8.95434 40.0001 20.0001C40.0001 31.0458 31.0458 40.0001 20.0001 40.0001C8.95434 40.0001 0 31.0458 0 20.0001C0 8.95434 8.95434 0 20.0001 0ZM17.4911 12.0072C17.2005 11.7813 16.7803 11.8018 16.5132 12.0687L16.4517 12.1386C16.2258 12.4291 16.2462 12.8493 16.5132 13.1164L23.3963 20.0001L16.5132 26.8837L16.4517 26.9535C16.2258 27.2441 16.2462 27.6643 16.5132 27.9313C16.8026 28.2206 17.2715 28.2206 17.5608 27.9313L24.9682 20.5238L25.0298 20.454C25.2557 20.1635 25.2352 19.7433 24.9682 19.4762L17.5608 12.0687L17.4911 12.0072Z" fill="#00963D"/>
<path d="M17.4911 12.0072C17.2005 11.7813 16.7803 11.8018 16.5132 12.0687L16.4517 12.1386C16.2258 12.4291 16.2462 12.8493 16.5132 13.1164L23.3963 20.0001L16.5132 26.8837L16.4517 26.9535C16.2258 27.2441 16.2462 27.6643 16.5132 27.9313C16.8026 28.2206 17.2715 28.2206 17.5608 27.9313L24.9682 20.5238L25.0298 20.454C25.2557 20.1635 25.2352 19.7433 24.9682 19.4762L17.5608 12.0687L17.4911 12.0072Z" fill="white"/>
</g>
<defs>
<clipPath id="clip0_1429_8951">
<rect width="40" height="40" fill="white"/>
</clipPath>
</defs>
</svg>
