<svg width="25" height="25" viewBox="0 0 25 25" fill="none" xmlns="http://www.w3.org/2000/svg">
<path d="M12.5 0C10.0277 0 7.61099 0.733112 5.55538 2.10663C3.49976 3.48015 1.89761 5.43238 0.951511 7.71646C0.00541602 10.0005 -0.242126 12.5139 0.24019 14.9386C0.722505 17.3634 1.91301 19.5907 3.66117 21.3388C5.40933 23.087 7.63661 24.2775 10.0614 24.7598C12.4861 25.2421 14.9995 24.9946 17.2835 24.0485C19.5676 23.1024 21.5199 21.5002 22.8934 19.4446C24.2669 17.389 25 14.9723 25 12.5C25 9.18479 23.683 6.00537 21.3388 3.66116C18.9946 1.31696 15.8152 0 12.5 0V0ZM15.6678 11.3158L15.4605 13.0576C15.4516 13.1384 15.413 13.213 15.3523 13.2671C15.2915 13.3212 15.2129 13.3508 15.1316 13.3503H13.3224V18.5148C13.3228 18.5765 13.2988 18.6358 13.2557 18.6799C13.2126 18.7239 13.1538 18.7491 13.0921 18.75H11.25C11.2193 18.7496 11.189 18.7431 11.1609 18.731C11.1327 18.7188 11.1072 18.7013 11.0858 18.6793C11.0644 18.6573 11.0476 18.6313 11.0363 18.6028C11.0249 18.5743 11.0193 18.5438 11.0197 18.5132L11.0296 13.3503H9.65954C9.5723 13.3503 9.48863 13.3157 9.42694 13.254C9.36525 13.1923 9.3306 13.1086 9.3306 13.0214V11.2812C9.3306 11.194 9.36525 11.1103 9.42694 11.0486C9.48863 10.987 9.5723 10.9523 9.65954 10.9523H11.0197V9.2648C11.0197 7.3125 12.1826 6.25 13.8816 6.25H15.2747C15.3619 6.25 15.4456 6.28466 15.5073 6.34634C15.569 6.40803 15.6036 6.4917 15.6036 6.57895V8.04441C15.6036 8.13165 15.569 8.21532 15.5073 8.27701C15.4456 8.3387 15.3619 8.37335 15.2747 8.37335H14.4211C13.4967 8.38816 13.3224 8.83059 13.3224 9.49177V10.9474H15.3487C15.3946 10.9484 15.4397 10.959 15.4813 10.9786C15.5228 10.9981 15.5598 11.0262 15.5899 11.0609C15.6199 11.0956 15.6424 11.1362 15.6558 11.1801C15.6692 11.224 15.6733 11.2702 15.6678 11.3158Z" fill="#333333"/>
</svg>
