<svg width="25" height="25" viewBox="0 0 25 25" fill="none" xmlns="http://www.w3.org/2000/svg">
<path fill-rule="evenodd" clip-rule="evenodd" d="M12.5 0C19.4036 0 25 5.59644 25 12.5C25 19.4036 19.4036 25 12.5 25C5.59644 25 0 19.4036 0 12.5C0 5.59644 5.59644 0 12.5 0ZM9.53956 5.9209H15.4606C16.4203 5.9209 17.3406 6.30212 18.0192 6.98071C18.6978 7.65929 19.079 8.57965 19.079 9.53932V15.4604C19.079 16.42 18.6978 17.3404 18.0192 18.019C17.3406 18.6976 16.4203 19.0788 15.4606 19.0788H9.53956C8.5799 19.0788 7.65954 18.6976 6.98095 18.019C6.30237 17.3404 5.92114 16.42 5.92114 15.4604V9.53932C5.92114 8.57965 6.30237 7.65929 6.98095 6.98071C7.65954 6.30212 8.5799 5.9209 9.53956 5.9209ZM17.0529 17.0527C17.613 16.4925 17.9277 15.7328 17.9277 14.9406V10.0591C17.9277 9.2669 17.613 8.50718 17.0529 7.94704C16.4928 7.3869 15.733 7.07221 14.9409 7.07221H10.0593C9.26714 7.07221 8.50743 7.3869 7.94728 7.94704C7.38714 8.50718 7.07246 9.2669 7.07246 10.0591V14.9406C7.07246 15.7328 7.38714 16.4925 7.94728 17.0527C8.50743 17.6128 9.26714 17.9275 10.0593 17.9275H14.9409C15.733 17.9275 16.4928 17.6128 17.0529 17.0527ZM14.8997 10.1253L14.8684 10.094L14.8421 10.0677C14.2202 9.44797 13.378 9.10017 12.5 9.10059C12.0567 9.1036 11.6182 9.19394 11.2098 9.36644C10.8014 9.53894 10.4309 9.79023 10.1197 10.1059C9.80838 10.4217 9.56235 10.7956 9.39564 11.2064C9.22892 11.6173 9.14479 12.0569 9.14804 12.5003C9.14737 13.4 9.50204 14.2636 10.1349 14.9032C10.4449 15.217 10.8142 15.4658 11.2214 15.6353C11.6287 15.8047 12.0655 15.8913 12.5066 15.8901C13.1682 15.8762 13.8114 15.6701 14.3579 15.2969C14.9043 14.9238 15.3304 14.3996 15.5841 13.7885C15.8378 13.1773 15.9082 12.5056 15.7866 11.8551C15.6651 11.2046 15.3569 10.6036 14.8997 10.1253ZM12.5 14.7305C12.0576 14.7367 11.6234 14.6112 11.2525 14.3699C10.8817 14.1287 10.591 13.7826 10.4174 13.3756C10.2438 12.9687 10.1951 12.5193 10.2776 12.0846C10.3601 11.65 10.57 11.2496 10.8806 10.9346C11.1913 10.6196 11.5886 10.404 12.022 10.3154C12.4555 10.2268 12.9055 10.2691 13.3149 10.4369C13.7242 10.6048 14.0744 10.8906 14.3209 11.258C14.5674 11.6254 14.699 12.0578 14.699 12.5003C14.7012 12.7911 14.646 13.0796 14.5367 13.3491C14.4273 13.6186 14.2659 13.864 14.0617 14.0711C13.8575 14.2782 13.6144 14.443 13.3465 14.5562C13.0785 14.6693 12.7909 14.7286 12.5 14.7305ZM16.7885 9.25214C16.8281 9.15432 16.8481 9.04965 16.8472 8.94411C16.8479 8.7573 16.784 8.57599 16.6663 8.43095L16.6482 8.41121C16.6266 8.38468 16.6024 8.36043 16.5758 8.33884L16.5594 8.32239C16.4168 8.20334 16.2369 8.13815 16.0512 8.13818C15.8924 8.1408 15.738 8.18994 15.6069 8.27952C15.4759 8.36909 15.374 8.49516 15.314 8.64209C15.2539 8.78902 15.2383 8.95035 15.269 9.10607C15.2998 9.26179 15.3756 9.40506 15.487 9.51812C15.5606 9.59258 15.6481 9.65171 15.7447 9.69208C15.8413 9.73245 15.9449 9.75327 16.0495 9.75331C16.1551 9.75267 16.2594 9.73121 16.3567 9.69018C16.4539 9.64914 16.5421 9.58933 16.6162 9.51416C16.6903 9.439 16.7488 9.34996 16.7885 9.25214Z" fill="#333333"/>
</svg>
