<svg width="100" height="84" viewBox="0 0 100 84" fill="none" xmlns="http://www.w3.org/2000/svg">
<path d="M3.82047 52.4774C4.96782 52.4774 6.10368 51.965 6.85328 50.9859L8.51692 48.8251C11.0067 63.5952 21.3518 76.2312 36.0378 81.3292C40.5583 82.8973 45.1974 83.6507 49.7753 83.6507C63.4822 83.6507 76.6728 76.889 84.5703 64.9835C85.7368 63.2242 85.2549 60.8492 83.4957 59.6827C81.7288 58.5086 79.3652 58.9982 78.1911 60.7574C69.5899 73.7377 53.2862 79.2296 38.5505 74.1048C26.3237 69.8597 17.7951 59.2162 15.9746 46.8555L19.2484 49.3758C20.9273 50.657 23.3253 50.351 24.6103 48.6759C25.8991 47.0008 25.5894 44.6029 23.9142 43.314C23.9142 43.314 14.8694 36.3497 14.8464 36.3344C12.9457 34.8696 10.2418 34.0473 8.52075 36.2923L0.795319 46.3239C-0.493528 47.999 -0.183745 50.3969 1.49137 51.6858C2.1836 52.2174 3.00586 52.4774 3.82047 52.4774Z" fill="#00963D"/>
<path d="M15.9447 23.97C17.7001 25.1365 20.0751 24.6546 21.2492 22.8953C29.8504 9.91889 46.1694 4.42695 60.8898 9.54792C73.1167 13.7931 81.6452 24.4366 83.4657 36.7973L80.1919 34.2769C78.513 32.9919 76.115 33.2979 74.83 34.9768C73.5412 36.6519 73.851 39.0499 75.5261 40.3387C75.5261 40.3387 84.5709 47.2993 84.5939 47.3184C86.5291 48.8061 89.1718 49.6398 90.9196 47.3605L98.645 37.3289C99.9338 35.6537 99.6241 33.2558 97.9489 31.967C96.2738 30.6781 93.8721 30.9917 92.587 32.6668L90.9234 34.8277C88.4337 20.0576 78.0885 7.42151 63.4025 2.32349C45.351 -3.94099 25.4026 2.7786 14.87 18.6655C13.7035 20.4285 14.1854 22.7997 15.9447 23.97Z" fill="#00963D"/>
</svg>
