<svg width="13" height="12" viewBox="0 0 13 12" fill="none" xmlns="http://www.w3.org/2000/svg">
<path d="M9.1206 11.5131C8.9628 11.5132 8.80738 11.4747 8.6679 11.4008L6.07682 10.039C6.05674 10.0283 6.03432 10.0227 6.01155 10.0227C5.98878 10.0227 5.96637 10.0283 5.94629 10.039L3.35562 11.4008C3.19508 11.4853 3.0141 11.5232 2.83315 11.5102C2.65221 11.4971 2.47853 11.4337 2.33176 11.3271C2.18499 11.2204 2.07099 11.0749 2.00266 10.9068C1.93434 10.7388 1.91441 10.5549 1.94514 10.3761L2.43983 7.49157C2.44363 7.46897 2.44182 7.44578 2.43458 7.42403C2.42733 7.40229 2.41486 7.38266 2.39825 7.36686L0.303938 5.32284C0.173907 5.19616 0.0819558 5.03558 0.0385041 4.85932C-0.00494765 4.68306 0.00183672 4.49814 0.0580885 4.32554C0.11434 4.15293 0.217811 3.99953 0.356776 3.88271C0.495741 3.7659 0.664646 3.69034 0.844353 3.6646L3.7389 3.24432C3.76142 3.24104 3.78281 3.23233 3.80121 3.21893C3.8196 3.20553 3.83446 3.18785 3.84449 3.16742L5.13858 0.542245C5.21873 0.379506 5.34285 0.24246 5.49688 0.146626C5.65091 0.0507926 5.82869 0 6.0101 0C6.19151 0 6.36929 0.0507926 6.52332 0.146626C6.67735 0.24246 6.80147 0.379506 6.88162 0.542245L8.17654 3.16658C8.18666 3.18695 8.20153 3.20458 8.21992 3.21797C8.2383 3.23136 8.25964 3.24011 8.28213 3.24349L11.1792 3.66418C11.3588 3.69007 11.5276 3.76571 11.6664 3.88254C11.8053 3.99938 11.9087 4.15274 11.9649 4.32529C12.0212 4.49783 12.028 4.68267 11.9846 4.85889C11.9413 5.03511 11.8495 5.19567 11.7196 5.32243L9.62319 7.36519C9.60665 7.38104 9.59422 7.40068 9.58697 7.42241C9.57973 7.44414 9.57789 7.4673 9.58162 7.48991L10.0763 10.3745C10.1001 10.5139 10.0932 10.6567 10.0562 10.7932C10.0192 10.9297 9.95284 11.0564 9.86183 11.1646C9.77083 11.2728 9.65734 11.3599 9.52926 11.4198C9.40118 11.4797 9.26158 11.511 9.12019 11.5114L9.1206 11.5131ZM6.01155 9.19097C6.16921 9.19093 6.32449 9.22946 6.46384 9.30321L9.05451 10.6646C9.07743 10.6777 9.10373 10.6838 9.13008 10.6819C9.15642 10.6801 9.18163 10.6704 9.2025 10.6542C9.22428 10.6393 9.2412 10.6183 9.25117 10.5939C9.26115 10.5694 9.26374 10.5426 9.25862 10.5166L8.76351 7.63166C8.73707 7.47639 8.74867 7.31703 8.79732 7.16723C8.84597 7.01743 8.93023 6.88166 9.04287 6.77157L11.1393 4.72838C11.158 4.71006 11.1712 4.68686 11.1774 4.66142C11.1837 4.63598 11.1827 4.6093 11.1745 4.5844C11.1664 4.55949 11.1515 4.53736 11.1314 4.52049C11.1114 4.50363 11.087 4.4927 11.0611 4.48894L8.16448 4.06783C8.00854 4.04525 7.86043 3.98504 7.73296 3.89241C7.60549 3.79977 7.50248 3.6775 7.43285 3.53615L6.13626 0.911391C6.12465 0.887901 6.10671 0.868127 6.08445 0.854301C6.06219 0.840475 6.03651 0.833148 6.01031 0.833148C5.9841 0.833148 5.95842 0.840475 5.93617 0.854301C5.91391 0.868127 5.89596 0.887901 5.88435 0.911391L4.59026 3.53531C4.52059 3.67672 4.41752 3.79903 4.28997 3.89167C4.16242 3.9843 4.01423 4.04448 3.85821 4.067L0.961997 4.48894C0.93602 4.49261 0.911596 4.50351 0.891508 4.52038C0.871419 4.53726 0.856473 4.55944 0.848372 4.58439C0.840271 4.60935 0.83934 4.63607 0.845685 4.66153C0.852029 4.68699 0.865396 4.71015 0.884261 4.72838L2.98024 6.77157C3.09288 6.88166 3.17713 7.01743 3.22579 7.16723C3.27444 7.31703 3.28604 7.47639 3.25959 7.63166L2.76449 10.5166C2.76 10.5426 2.76287 10.5692 2.77279 10.5936C2.7827 10.618 2.79926 10.6391 2.82057 10.6545C2.84188 10.6699 2.86709 10.679 2.89334 10.6808C2.91958 10.6826 2.9458 10.677 2.96902 10.6646L5.55927 9.30279C5.69872 9.22935 5.85395 9.19097 6.01155 9.19097Z" fill="#00963D"/>
<path d="M6.01155 9.19097C6.16921 9.19093 6.32449 9.22946 6.46384 9.30321L9.05451 10.6646C9.07743 10.6777 9.10373 10.6838 9.13008 10.6819C9.15642 10.6801 9.18163 10.6704 9.2025 10.6542C9.22428 10.6393 9.2412 10.6183 9.25117 10.5939C9.26115 10.5694 9.26374 10.5426 9.25862 10.5166L8.76351 7.63166C8.73707 7.47639 8.74867 7.31703 8.79732 7.16723C8.84597 7.01743 8.93023 6.88166 9.04287 6.77157L11.1393 4.72838C11.158 4.71006 11.1712 4.68686 11.1774 4.66142C11.1837 4.63598 11.1827 4.6093 11.1745 4.5844C11.1664 4.55949 11.1515 4.53736 11.1314 4.52049C11.1114 4.50363 11.087 4.4927 11.0611 4.48894L8.16448 4.06783C8.00854 4.04525 7.86043 3.98504 7.73296 3.89241C7.60549 3.79977 7.50248 3.6775 7.43285 3.53615L6.13626 0.911391C6.12465 0.887901 6.10671 0.868127 6.08445 0.854301C6.06219 0.840475 6.03651 0.833148 6.01031 0.833148C5.9841 0.833148 5.95842 0.840475 5.93617 0.854301C5.91391 0.868127 5.89596 0.887901 5.88435 0.911391L4.59026 3.53531C4.52059 3.67672 4.41752 3.79903 4.28997 3.89167C4.16242 3.9843 4.01423 4.04448 3.85821 4.067L0.961997 4.48894C0.93602 4.49261 0.911596 4.50351 0.891508 4.52038C0.871419 4.53726 0.856473 4.55944 0.848372 4.58439C0.840271 4.60935 0.83934 4.63607 0.845685 4.66153C0.852029 4.68699 0.865396 4.71015 0.884261 4.72838L2.98024 6.77157C3.09288 6.88166 3.17713 7.01743 3.22579 7.16723C3.27444 7.31703 3.28604 7.47639 3.25959 7.63166L2.76449 10.5166C2.76 10.5426 2.76287 10.5692 2.77279 10.5936C2.7827 10.618 2.79926 10.6391 2.82057 10.6545C2.84188 10.6699 2.86709 10.679 2.89334 10.6808C2.91958 10.6826 2.9458 10.677 2.96902 10.6646L5.55927 9.30279C5.69872 9.22935 5.85395 9.19097 6.01155 9.19097Z" fill="#00963D"/>
</svg>
