<svg width="25" height="25" viewBox="0 0 25 25" fill="none" xmlns="http://www.w3.org/2000/svg">
<path fill-rule="evenodd" clip-rule="evenodd" d="M25 12.5C25 19.4036 19.4036 25 12.5 25C5.59644 25 0 19.4036 0 12.5C0 5.59644 5.59644 0 12.5 0C19.4036 0 25 5.59644 25 12.5ZM16.9082 7.71346L5.82276 11.9893C5.06297 12.2864 5.07638 12.7072 5.69245 12.9027L8.53041 13.7883L15.1137 9.64194C15.4193 9.43874 15.7029 9.55376 15.471 9.75791L10.1439 14.5724L9.93981 17.4986C10.2368 17.4986 10.3662 17.3692 10.5195 17.2159L11.9059 15.8798L14.7802 17.999C15.3043 18.2961 15.679 18.1427 15.8188 17.5121L17.7063 8.61636L17.7054 8.61732C17.8721 7.83903 17.4227 7.52752 16.9082 7.71346Z" fill="#333333"/>
</svg>
